HIERARCHY
ROOT center
{
	OFFSET 0.0 0.0 0.0
	CHANNELS 6 Xposition Yposition Zposition Zrotation Yrotation Xrotation
	JOINT right_hip
	{
		OFFSET 0.0 0.0 0.0
		CHANNELS 3 Zrotation Yrotation Xrotation
		JOINT right_knee
		{
			OFFSET 6.003237 -8.234672 -1.763324
			CHANNELS 3 Zrotation Yrotation Xrotation
			JOINT right_ankle
			{
				OFFSET 4.247250 -37.915997 0.952319
				CHANNELS 3 Zrotation Yrotation Xrotation
				JOINT right_feet
				{
					OFFSET -2.128168 -41.069791 -4.089553
					CHANNELS 3 Zrotation Yrotation Xrotation
					End Site
					{
						OFFSET 4.451157 -5.802411 11.731484
					}
				}
			}
		}
	}
	JOINT left_hip
	{
		OFFSET 0.0 0.0 0.0
		CHANNELS 3 Zrotation Yrotation Xrotation
		JOINT left_knee
		{
			OFFSET -6.137124 -8.952887 -1.421033
			CHANNELS 3 Zrotation Yrotation Xrotation
			JOINT left_ankle
			{
				OFFSET -4.233828 -37.775457 -0.231634
				CHANNELS 3 Zrotation Yrotation Xrotation
				JOINT left_feet
				{
					OFFSET 2.522341 -40.384021 -3.658957
					CHANNELS 3 Zrotation Yrotation Xrotation
					End Site
					{
						OFFSET -4.121543 -6.372566 12.381067
					}
				}
			}
		}
	}
	JOINT spine1
	{
		OFFSET 0.0 0.0 0.0
		CHANNELS 3 Zrotation Yrotation Xrotation
		JOINT spine2
		{
			OFFSET 0.493787 12.434425 -4.801330
			CHANNELS 3 Zrotation Yrotation Xrotation
			JOINT neck
			{
				OFFSET 0.538413 13.551614 3.993389
				CHANNELS 3 Zrotation Yrotation Xrotation
				JOINT head1
				{
					OFFSET -0.318717 5.546091 0.520973
					CHANNELS 3 Zrotation Yrotation Xrotation
					JOINT head2
					{
						OFFSET -1.377978 20.417799 -3.430427
						CHANNELS 3 Zrotation Yrotation Xrotation
						End Site
						{
							OFFSET 1.047753 8.312879 4.953424
						}
					}
				}
				JOINT right_armpit
				{
					OFFSET -0.318717 5.546091 0.520973
					CHANNELS 3 Zrotation Yrotation Xrotation
					JOINT right_shoulder
					{
						OFFSET 7.264843 11.244930 -1.381082
						CHANNELS 3 Zrotation Yrotation Xrotation
						JOINT right_elbow
						{
							OFFSET 12.006267 4.030055 -2.745621
							CHANNELS 3 Zrotation Yrotation Xrotation
							JOINT right_wrist
							{
								OFFSET 24.494633 -1.444752 -2.048422
								CHANNELS 3 Zrotation Yrotation Xrotation
								JOINT left_thumb1
								{
									OFFSET 25.149395 1.252691 -0.662978
									CHANNELS 3 Zrotation Yrotation Xrotation
									JOINT left_thumb2
									{
										OFFSET 3.932642 -1.607562 3.004782
										CHANNELS 3 Zrotation Yrotation Xrotation
										JOINT left_thumb3
										{
											OFFSET 1.768622 -1.073321 2.362116
											CHANNELS 3 Zrotation Yrotation Xrotation
											JOINT left_thumb4
											{
												OFFSET 2.182346 -1.208037 1.763641
												CHANNELS 3 Zrotation Yrotation Xrotation
												End Site
												{
													OFFSET 1.765320 -0.885300 1.005084
												}
											}
										}
									}
								}
								JOINT left_index1
								{
									OFFSET 25.149395 1.252691 -0.662978
									CHANNELS 3 Zrotation Yrotation Xrotation
									JOINT left_index2
									{
										OFFSET 8.993935 0.354131 2.426565
										CHANNELS 3 Zrotation Yrotation Xrotation
										JOINT left_index3
										{
											OFFSET 4.015668 0.132908 0.191764
											CHANNELS 3 Zrotation Yrotation Xrotation
											JOINT left_index4
											{
												OFFSET 2.037966 -0.565846 0.005131
												CHANNELS 3 Zrotation Yrotation Xrotation
												End Site
												{
													OFFSET 1.874599 -0.321127 -0.083419
												}
											}
										}
									}
								}
								JOINT left_middle1
								{
									OFFSET 25.149395 1.252691 -0.662978
									CHANNELS 3 Zrotation Yrotation Xrotation
									JOINT left_middle2
									{
										OFFSET 8.762972 0.524144 0.126571
										CHANNELS 3 Zrotation Yrotation Xrotation
										JOINT left_middle3
										{
											OFFSET 4.273323 0.056721 -0.429347
											CHANNELS 3 Zrotation Yrotation Xrotation
											JOINT left_middle4
											{
												OFFSET 2.116821 -0.959837 0.006184
												CHANNELS 3 Zrotation Yrotation Xrotation
												End Site
												{
													OFFSET 1.877739 -0.757117 -0.023636
												}
											}
										}
									}
								}
								JOINT left_ring1
								{
									OFFSET 25.149395 1.252691 -0.662978
									CHANNELS 3 Zrotation Yrotation Xrotation
									JOINT left_ring2
									{
										OFFSET 8.336177 0.249843 -1.667055
										CHANNELS 3 Zrotation Yrotation Xrotation
										JOINT left_ring3
										{
											OFFSET 3.625989 -0.080996 -0.883047
											CHANNELS 3 Zrotation Yrotation Xrotation
											JOINT left_ring4
											{
												OFFSET 1.874289 -1.177449 -0.170528
												CHANNELS 3 Zrotation Yrotation Xrotation
												End Site
												{
													OFFSET 1.578880 -1.067276 -0.121516
												}
											}
										}
									}
								}
								JOINT left_little1
								{
									OFFSET 25.149395 1.252691 -0.662978
									CHANNELS 3 Zrotation Yrotation Xrotation
									JOINT left_little2
									{
										OFFSET 7.467338 -0.170476 -3.195559
										CHANNELS 3 Zrotation Yrotation Xrotation
										JOINT left_little3
										{
											OFFSET 2.734264 -0.500053 -1.255270
											CHANNELS 3 Zrotation Yrotation Xrotation
											JOINT left_little4
											{
												OFFSET 1.333183 -0.723305 -0.379579
												CHANNELS 3 Zrotation Yrotation Xrotation
												End Site
												{
													OFFSET 1.167858 -0.842210 -0.123702
												}
											}
										}
									}
								}
							}
						}
					}
				}
				JOINT left_armpit
				{
					OFFSET -0.318717 5.546091 0.520973
					CHANNELS 3 Zrotation Yrotation Xrotation
					JOINT left_shoulder
					{
						OFFSET -8.492000 11.126453 -1.828523
						CHANNELS 3 Zrotation Yrotation Xrotation
						JOINT left_elbow
						{
							OFFSET -11.121675 4.208167 -1.682719
							CHANNELS 3 Zrotation Yrotation Xrotation
							JOINT left_wrist
							{
								OFFSET -24.907178 -1.231040 -3.045630
								CHANNELS 3 Zrotation Yrotation Xrotation
								JOINT right_thumb1
								{
									OFFSET -25.685241 0.675034 -0.369305
									CHANNELS 3 Zrotation Yrotation Xrotation
									JOINT right_thumb2
									{
										OFFSET -3.534315 -1.809768 3.298760
										CHANNELS 3 Zrotation Yrotation Xrotation
										JOINT right_thumb3
										{
											OFFSET -1.811383 -1.038386 2.556563
											CHANNELS 3 Zrotation Yrotation Xrotation
											JOINT right_thumb4
											{
												OFFSET -2.290358 -1.278319 2.012989
												CHANNELS 3 Zrotation Yrotation Xrotation
												End Site
												{
													OFFSET -1.969455 -1.070182 1.076385
												}
											}
										}
									}
								}
								JOINT right_index1
								{
									OFFSET -25.685241 0.675034 -0.369305
									CHANNELS 3 Zrotation Yrotation Xrotation
									JOINT right_index2
									{
										OFFSET -9.026274 -0.013413 2.564157
										CHANNELS 3 Zrotation Yrotation Xrotation
										JOINT right_index3
										{
											OFFSET -4.210113 -0.054377 0.192441
											CHANNELS 3 Zrotation Yrotation Xrotation
											JOINT right_index4
											{
												OFFSET -2.157488 -0.719005 0.059623
												CHANNELS 3 Zrotation Yrotation Xrotation
												End Site
												{
													OFFSET -1.911041 -0.428463 -0.012114
												}
											}
										}
									}
								}
								JOINT right_middle1
								{
									OFFSET -25.685241 0.675034 -0.369305
									CHANNELS 3 Zrotation Yrotation Xrotation
									JOINT right_middle2
									{
										OFFSET -8.808337 0.016182 0.031701
										CHANNELS 3 Zrotation Yrotation Xrotation
										JOINT right_middle3
										{
											OFFSET -4.557579 -0.214504 -0.366192
											CHANNELS 3 Zrotation Yrotation Xrotation
											JOINT right_middle4
											{
												OFFSET -2.213937 -1.122867 0.075004
												CHANNELS 3 Zrotation Yrotation Xrotation
												End Site
												{
													OFFSET -1.846703 -0.900412 0.030151
												}
											}
										}
									}
								}
								JOINT right_ring1
								{
									OFFSET -25.685241 0.675034 -0.369305
									CHANNELS 3 Zrotation Yrotation Xrotation
									JOINT right_ring2
									{
										OFFSET -8.316527 -0.381612 -1.773284
										CHANNELS 3 Zrotation Yrotation Xrotation
										JOINT right_ring3
										{
											OFFSET -3.784131 -0.319129 -0.916271
											CHANNELS 3 Zrotation Yrotation Xrotation
											JOINT right_ring4
											{
												OFFSET -2.008768 -1.368578 -0.094339
												CHANNELS 3 Zrotation Yrotation Xrotation
												End Site
												{
													OFFSET -1.566631 -1.127561 -0.081427
												}
											}
										}
									}
								}
								JOINT right_little1
								{
									OFFSET -25.685241 0.675034 -0.369305
									CHANNELS 3 Zrotation Yrotation Xrotation
									JOINT right_little2
									{
										OFFSET -7.427190 -0.917724 -3.422155
										CHANNELS 3 Zrotation Yrotation Xrotation
										JOINT right_little3
										{
											OFFSET -2.747496 -0.707402 -1.189286
											CHANNELS 3 Zrotation Yrotation Xrotation
											JOINT right_little4
											{
												OFFSET -1.427463 -0.888600 -0.355099
												CHANNELS 3 Zrotation Yrotation Xrotation
												End Site
												{
													OFFSET -1.147156 -0.941040 -0.045633
												}
											}
										}
									}
								}
							}
						}
					}
				}
			}
		}
	}
}
MOTION
Frames: 4
Frame Time: 0.033333
-25.338296 -0.946446 -160.768628 0.0 0.0 180.0 -14.653291 -3.385136 -178.357881 54.514930 -15.484576 22.488557 -76.903428 -39.853977 -49.646419 0.000000 -0.000000 0.000000 -14.653291 -3.385136 -178.357881 -11.089503 0.523670 -3.558425 -3.936139 0.281133 -1.195670 0.000000 -0.000000 0.000000 -14.653291 -3.385136 -178.357881 -0.480415 -0.102086 0.071204 -0.212895 -0.166831 -0.276856 -0.145633 -0.175979 -0.326543 0.000000 -0.000000 0.000000 -0.145633 -0.175979 -0.326543 -23.446200 11.281230 -2.342192 -39.380466 17.344354 -14.048317 -67.971879 -19.776804 39.887684 0.000000 -0.000000 0.000000 0.000000 -0.000000 0.000000 0.000000 -0.000000 0.000000 0.000000 -0.000000 0.000000 0.000000 -0.000000 0.000000 0.000000 -0.000000 0.000000 0.000000 -0.000000 0.000000 0.000000 -0.000000 0.000000 0.000000 -0.000000 0.000000 0.000000 -0.000000 0.000000 0.000000 -0.000000 0.000000 0.000000 -0.000000 0.000000 0.000000 -0.000000 0.000000 0.000000 -0.000000 0.000000 0.000000 -0.000000 0.000000 0.000000 -0.000000 0.000000 0.000000 -0.000000 0.000000 0.000000 -0.000000 0.000000 0.000000 -0.000000 0.000000 0.000000 -0.000000 0.000000 -0.145633 -0.175979 -0.326543 6.493248 -10.681020 -4.673671 34.338008 -8.459112 -9.805729 86.144016 8.743945 65.909325 0.000000 -0.000000 0.000000 0.000000 -0.000000 0.000000 0.000000 -0.000000 0.000000 0.000000 -0.000000 0.000000 0.000000 -0.000000 0.000000 0.000000 -0.000000 0.000000 0.000000 -0.000000 0.000000 0.000000 -0.000000 0.000000 0.000000 -0.000000 0.000000 0.000000 -0.000000 0.000000 0.000000 -0.000000 0.000000 0.000000 -0.000000 0.000000 0.000000 -0.000000 0.000000 0.000000 -0.000000 0.000000 0.000000 -0.000000 0.000000 0.000000 -0.000000 0.000000 0.000000 -0.000000 0.000000 0.000000 -0.000000 0.000000 0.000000 -0.000000 0.000000 0.000000 -0.000000 0.000000
-25.051573 -0.719403 -161.122207 0.0 0.0 180.0 -14.689051 -3.238356 -178.383219 52.290534 -14.014472 22.030042 -76.030043 -37.625199 -48.298540 0.000000 -0.000000 0.000000 -14.689051 -3.238356 -178.383219 -11.283366 0.308340 -3.100869 -4.214143 0.233088 -2.353462 0.000000 -0.000000 0.000000 -14.689051 -3.238356 -178.383219 -0.519947 -0.050513 0.058921 -0.256780 -0.115593 -0.250864 -0.187015 -0.124594 -0.293767 0.000000 -0.000000 0.000000 -0.187015 -0.124594 -0.293767 -22.506803 12.387369 -2.663360 -40.183769 17.342492 -14.351485 -67.637224 -19.070432 38.436049 0.000000 -0.000000 0.000000 0.000000 -0.000000 0.000000 0.000000 -0.000000 0.000000 0.000000 -0.000000 0.000000 0.000000 -0.000000 0.000000 0.000000 -0.000000 0.000000 0.000000 -0.000000 0.000000 0.000000 -0.000000 0.000000 0.000000 -0.000000 0.000000 0.000000 -0.000000 0.000000 0.000000 -0.000000 0.000000 0.000000 -0.000000 0.000000 0.000000 -0.000000 0.000000 0.000000 -0.000000 0.000000 0.000000 -0.000000 0.000000 0.000000 -0.000000 0.000000 0.000000 -0.000000 0.000000 0.000000 -0.000000 0.000000 0.000000 -0.000000 0.000000 0.000000 -0.000000 0.000000 -0.187015 -0.124594 -0.293767 5.620178 -10.532809 -4.279531 35.119492 -8.360261 -9.959579 86.335907 8.786570 67.094975 0.000000 -0.000000 0.000000 0.000000 -0.000000 0.000000 0.000000 -0.000000 0.000000 0.000000 -0.000000 0.000000 0.000000 -0.000000 0.000000 0.000000 -0.000000 0.000000 0.000000 -0.000000 0.000000 0.000000 -0.000000 0.000000 0.000000 -0.000000 0.000000 0.000000 -0.000000 0.000000 0.000000 -0.000000 0.000000 0.000000 -0.000000 0.000000 0.000000 -0.000000 0.000000 0.000000 -0.000000 0.000000 0.000000 -0.000000 0.000000 0.000000 -0.000000 0.000000 0.000000 -0.000000 0.000000 0.000000 -0.000000 0.000000 0.000000 -0.000000 0.000000 0.000000 -0.000000 0.000000
-24.849936 -0.684687 -161.305430 0.0 0.0 180.0 -14.476600 -3.491937 -178.648754 49.487906 -13.293286 22.873605 -76.086248 -34.943156 -45.091006 0.000000 -0.000000 0.000000 -14.476600 -3.491937 -178.648754 -11.399538 0.415892 -3.047005 -3.782012 0.250233 -1.466082 0.000000 -0.000000 0.000000 -14.476600 -3.491937 -178.648754 -0.492465 -0.088291 0.048203 -0.244551 -0.149240 -0.251353 -0.179770 -0.157703 -0.293061 0.000000 -0.000000 0.000000 -0.179770 -0.157703 -0.293061 -21.764854 12.601117 -2.479798 -41.726560 17.325237 -14.822470 -66.270774 -20.168963 38.094504 0.000000 -0.000000 0.000000 0.000000 -0.000000 0.000000 0.000000 -0.000000 0.000000 0.000000 -0.000000 0.000000 0.000000 -0.000000 0.000000 0.000000 -0.000000 0.000000 0.000000 -0.000000 0.000000 0.000000 -0.000000 0.000000 0.000000 -0.000000 0.000000 0.000000 -0.000000 0.000000 0.000000 -0.000000 0.000000 0.000000 -0.000000 0.000000 0.000000 -0.000000 0.000000 0.000000 -0.000000 0.000000 0.000000 -0.000000 0.000000 0.000000 -0.000000 0.000000 0.000000 -0.000000 0.000000 0.000000 -0.000000 0.000000 0.000000 -0.000000 0.000000 0.000000 -0.000000 0.000000 -0.179770 -0.157703 -0.293061 5.249520 -11.199089 -4.674153 35.120175 -7.372893 -10.011778 86.254812 7.167987 61.933639 0.000000 -0.000000 0.000000 0.000000 -0.000000 0.000000 0.000000 -0.000000 0.000000 0.000000 -0.000000 0.000000 0.000000 -0.000000 0.000000 0.000000 -0.000000 0.000000 0.000000 -0.000000 0.000000 0.000000 -0.000000 0.000000 0.000000 -0.000000 0.000000 0.000000 -0.000000 0.000000 0.000000 -0.000000 0.000000 0.000000 -0.000000 0.000000 0.000000 -0.000000 0.000000 0.000000 -0.000000 0.000000 0.000000 -0.000000 0.000000 0.000000 -0.000000 0.000000 0.000000 -0.000000 0.000000 0.000000 -0.000000 0.000000 0.000000 -0.000000 0.000000 0.000000 -0.000000 0.000000
-24.862533 -0.413071 -160.545822 0.0 0.0 180.0 -14.096312 -2.607824 -177.701836 46.105114 -10.547846 19.528407 -74.462542 -29.899752 -41.620359 0.000000 -0.000000 0.000000 -14.096312 -2.607824 -177.701836 -10.823867 0.525641 -4.973979 -3.946600 0.231091 -2.002685 0.000000 -0.000000 0.000000 -14.096312 -2.607824 -177.701836 -0.515239 -0.073574 0.062931 -0.265337 -0.135352 -0.231204 -0.197900 -0.144159 -0.274537 0.000000 -0.000000 0.000000 -0.197900 -0.144159 -0.274537 -21.517113 12.361607 -2.217719 -42.625935 17.417409 -15.213592 -64.625294 -20.685449 36.664901 0.000000 -0.000000 0.000000 0.000000 -0.000000 0.000000 0.000000 -0.000000 0.000000 0.000000 -0.000000 0.000000 0.000000 -0.000000 0.000000 0.000000 -0.000000 0.000000 0.000000 -0.000000 0.000000 0.000000 -0.000000 0.000000 0.000000 -0.000000 0.000000 0.000000 -0.000000 0.000000 0.000000 -0.000000 0.000000 0.000000 -0.000000 0.000000 0.000000 -0.000000 0.000000 0.000000 -0.000000 0.000000 0.000000 -0.000000 0.000000 0.000000 -0.000000 0.000000 0.000000 -0.000000 0.000000 0.000000 -0.000000 0.000000 0.000000 -0.000000 0.000000 0.000000 -0.000000 0.000000 -0.197900 -0.144159 -0.274537 5.000527 -10.376864 -4.327994 36.322987 -6.347779 -9.735036 86.010845 8.120343 63.458978 0.000000 -0.000000 0.000000 0.000000 -0.000000 0.000000 0.000000 -0.000000 0.000000 0.000000 -0.000000 0.000000 0.000000 -0.000000 0.000000 0.000000 -0.000000 0.000000 0.000000 -0.000000 0.000000 0.000000 -0.000000 0.000000 0.000000 -0.000000 0.000000 0.000000 -0.000000 0.000000 0.000000 -0.000000 0.000000 0.000000 -0.000000 0.000000 0.000000 -0.000000 0.000000 0.000000 -0.000000 0.000000 0.000000 -0.000000 0.000000 0.000000 -0.000000 0.000000 0.000000 -0.000000 0.000000 0.000000 -0.000000 0.000000 0.000000 -0.000000 0.000000 0.000000 -0.000000 0.000000
